<svg width="9" height="8" viewBox="0 0 9 8" fill="none" xmlns="http://www.w3.org/2000/svg">
<path d="M4.5 8C3.76667 8 3.09697 7.82121 2.49091 7.46364C1.88485 7.1 1.4 6.61515 1.03636 6.00909C0.678788 5.40303 0.5 4.73333 0.5 4C0.5 3.26061 0.678788 2.59091 1.03636 1.99091C1.4 1.38485 1.88485 0.90303 2.49091 0.545454C3.09697 0.181818 3.76667 0 4.5 0C5.23939 0 5.90909 0.181818 6.50909 0.545454C7.11515 0.90303 7.59697 1.38485 7.95455 1.99091C8.31818 2.59091 8.5 3.26061 8.5 4C8.5 4.73333 8.31818 5.40303 7.95455 6.00909C7.59697 6.61515 7.11515 7.1 6.50909 7.46364C5.90909 7.82121 5.23939 8 4.5 8Z" fill="#6D8EFF"/>
</svg>
