<svg width="32" height="16" viewBox="0 0 32 16" fill="none" xmlns="http://www.w3.org/2000/svg" preserveAspectRatio="none">
<path d="M1.59714 8.88319C1.20241 8.51754 0.895956 8.21304 0.68823 8C0.895956 7.78696 1.20241 7.48246 1.59714 7.11681C2.39351 6.3791 3.54651 5.39498 4.97046 4.4114C7.82789 2.43765 11.7272 0.5 16 0.5C20.2728 0.5 24.1721 2.43765 27.0296 4.4114C28.4535 5.39498 29.6065 6.3791 30.4029 7.11681C30.7976 7.48246 31.104 7.78696 31.3118 8C31.104 8.21304 30.7976 8.51754 30.4029 8.88319C29.6065 9.6209 28.4535 10.605 27.0296 11.5886C24.1721 13.5624 20.2728 15.5 16 15.5C11.7272 15.5 7.82789 13.5624 4.97046 11.5886C3.54651 10.605 2.39351 9.6209 1.59714 8.88319Z" fill="white" stroke="black"/>
<path d="M16 15.5C20.1421 15.5 23.5 12.1421 23.5 8C23.5 3.85786 20.1421 0.5 16 0.5C11.8579 0.5 8.5 3.85786 8.5 8C8.5 12.1421 11.8579 15.5 16 15.5Z" fill="black"/>
</svg>
