<svg width="523" height="240" viewBox="0 0 523 240" fill="none" xmlns="http://www.w3.org/2000/svg">
<path d="M185.34 0C184.9 8.21 184.05 16.79 184.52 25.02C184.73 28.75 185.32 35.55 189.39 36.9C186.29 40.97 184.86 44.33 184.02 49.38C183.18 54.43 182.18 63.35 182.91 67.98C183.06 68.91 184.2 70.17 185.19 70.17C186.06 70.17 190.19 67.61 190.41 66.85C190.76 65.67 189.56 63.11 189.41 61.74C187.59 45.37 202.29 35.27 200.47 19.6C199.96 15.22 198.42 11.04 197.5 6.76C197.95 6.82 198.03 7.72 198.17 8.11C199.2 10.97 200.15 14.03 200.93 16.97C202.09 21.33 202.63 26.1 203.79 30.33C204.5 32.92 205.28 32.34 207.49 31.49C210.37 30.38 213 28.43 215.88 27.31C210.33 32.33 204.47 38.03 200.24 44.25C196.01 50.47 195.35 56.96 197.03 64.12C198.58 70.75 200.84 77.03 206.93 80.74L205.37 83.99C205.27 85.03 209.27 84.9 210.02 84.9C210.98 83.76 210.09 81.97 209.58 80.78C208.54 78.36 206.88 76.23 205.6 73.94C207.73 73.19 209.09 72.59 209.85 70.35C211.37 65.87 210.1 56.15 209.35 51.26C208.84 47.93 207.9 44.68 207.49 41.36C210.27 44.69 210.31 49.62 212.89 52.98C212.92 48 213.6 42.97 215.39 38.31C217.55 32.68 221.64 27.23 225.18 22.41L229.66 15.95C228.85 19.95 226.01 23.16 224.2 26.58C220.83 32.96 218.88 40.99 219.68 48.23C219.81 49.42 221.27 53.64 221.87 54.69C222.01 54.94 222.12 55.23 222.49 55.15C222.75 55.09 225.33 51.55 225.87 50.95C234.3 41.66 245.08 33.07 254.15 24.34L256.71 22.71C252.56 26.98 248.18 31.04 244.13 35.41C239.06 40.87 228.95 51.88 228.31 59.34C228.09 61.95 228.28 64.65 229.39 67.04C226.38 66.1 223.32 68.18 221.76 70.64C219.52 74.18 218.93 80.62 219.09 84.76C219.14 86.08 219.52 87.4 219.43 88.75L224.25 92.45C223.35 92.24 219.44 89.79 218.85 90.3C217.42 94.94 217.82 100.33 220.59 104.35C223.04 105.5 226.66 105.51 228.31 107.86C225.08 107.32 224.4 111.83 224.53 114.21C224.62 115.88 225.9 121.68 225.46 122.72C224.97 123.89 224.22 124.35 224.01 126.14C223.53 130.25 223.93 135.8 225.06 139.76C223.94 139.83 221.29 137.04 220.44 137.71C218.29 143.26 217.66 149.35 218.33 155.27C218.68 158.35 219.17 160.7 221 163.28C220.29 163.79 217.95 161.84 217.5 164.51C216.93 167.95 219.4 176.67 220.95 179.95C222.67 183.59 225.54 186.77 226.95 190.58C224.57 188.38 218.72 182.08 215.18 184.63C211.97 186.94 214.8 196.1 215.25 199.44C215.29 199.73 215.55 200.37 215.06 200.31C212.25 194.16 198.87 180.68 194.45 192.29C193.36 195.15 193.11 200.88 193.45 203.94C193.76 206.75 195.17 209.91 195.58 212.75L190.17 203.7C186.48 199.11 181.52 203.56 179.48 207.33L178.01 210.85C178.04 207.18 178.95 203.58 178.26 199.92C177.8 197.46 174.77 196.81 172.77 197.91C170.17 199.34 170.16 203.53 169.16 205.92C169.02 206.26 169.01 206.72 168.55 206.79C168.4 203.97 168.29 201.09 168 198.28C167.75 195.8 166.94 192.5 166.91 190.15C166.85 185.04 167.37 179.88 166.03 174.83C165.71 173.61 165.4 171.72 163.96 171.49C162.13 171.19 160.19 173.67 158.81 174.62C158.58 168.61 156.24 165.02 151.98 171.45C147.38 178.39 144.64 187.1 142.71 195.16C141.14 201.73 141.78 205.12 136.09 209.9C132.33 213.06 127.64 215.31 122.82 212.88C113.83 208.35 116.69 190.71 127.17 192.85C130.41 193.51 132.69 197.35 130.9 200.39C130.64 200.83 129.48 202.17 129.05 201.78C132.28 198.75 129.45 192.46 124.81 194.57C118.97 197.23 118.67 207.5 124.71 210.17C126.58 211 128.92 210.44 130.82 209.76C144.89 204.7 139.38 173.38 149.2 162.17C151.89 159.1 155.73 157.13 159.89 158.12C159.56 151.7 159.48 145.24 158.27 138.92C157.98 138.92 157.66 138.87 157.37 138.97C155.9 139.48 154.72 146.77 152.32 147.57C153.21 145.69 154.24 144.04 154.68 141.95C155.05 140.19 154.93 138.23 155.48 136.54C155.96 135.08 157.21 134.55 156.71 133.05C156.29 131.8 155.2 131.1 153.94 130.95C156.65 129.39 158.16 126 156.7 123.05C156.08 121.79 152.99 119.98 151.53 119.7C151.5 118.46 151.82 113.79 151.26 113.08C150.7 112.37 146.67 112.63 146.4 113.41L146.61 120.92C146.84 121.24 149.24 121.03 149.96 121.14C151.66 121.4 155.56 123.44 155.83 125.29C156.25 128.21 152.48 131.43 150.43 128.38C151.42 128.44 152.78 128.71 153.54 127.83C154.17 127.1 154.34 125.39 153.6 124.66C152.96 124.03 148.81 122.88 147.99 123.37C147.11 123.89 147.48 128.42 147.46 129.6C147.38 134.22 148.21 138.13 148.27 142.55C148.33 146.97 147.9 152.21 146.98 156.7L141.49 171.9C141.01 171.97 141.23 171.29 141.29 171.02C141.55 169.84 142.19 168.58 142.5 167.36C144.15 160.95 145.19 154.04 145.56 147.44C145.75 143.97 146 137.72 141.49 137.16L141.24 136.85C141.43 134.54 143.27 131.12 140.95 129.45C140.78 130.85 139.82 132.14 139.38 133.43C137.47 139.13 137.6 145.42 139.59 151.07C135.26 151.81 133.9 156.09 135.82 159.83C132.54 160.72 132.37 165.86 132.05 168.81C131.39 174.9 131.5 182.48 132.01 188.51C132.08 189.36 131.97 190.23 132.01 191.07C131.32 190.75 130.96 189.92 130.74 189.24C129.19 184.46 128.85 178.46 127.83 173.5C126.64 167.72 124.18 157.67 121.34 152.68C120.28 150.82 119.53 149.62 117.14 150.52C117.33 148.64 116.99 147.31 116.2 145.65C115.84 144.9 113.32 140.92 112.68 141.06C111.46 142.86 112.82 145.06 114.7 145.79C111.98 147.99 115.87 151.16 117.02 153.48C120.84 161.18 120.04 178.18 119.3 186.88C119.12 188.99 118.77 191.13 118.49 193.23C118.02 193.29 118.24 192.62 118.22 192.29C118.01 187.38 118.74 181.94 118.5 176.86C118.43 175.31 117.54 166.57 116.75 165.9C115.48 164.83 111.03 166.53 110.7 168.01C110.52 168.81 110.7 169.71 110.64 170.52C105.36 168.36 104.25 172.52 103.42 176.69C101.45 186.58 102.09 195.55 102.53 205.52C102.74 210.26 102.14 217.33 106.49 220.49C110.22 223.2 112.58 220.07 109.82 217.03C112.26 216.69 112.47 219.95 111.44 221.49C109.35 224.64 105.12 221.99 103.45 219.74C101.52 217.14 100.45 210.1 100.37 206.86C100.29 203.62 100.15 200.02 100.06 196.63C99.9 190.4 101.08 175.66 98.5 170.61C98.22 170.07 97.21 169.16 97.15 168.73C97.06 168.13 98.32 166.7 98.58 165.94C99.55 163.09 99.44 158.59 98.52 155.73C97.6 152.87 94.85 150.77 92.26 149.29C93.42 146.53 93.04 143.57 92.77 140.67C92.56 138.47 91.55 131.07 89.93 129.72C89.67 129.51 89.48 129.38 89.12 129.42C87.67 129.42 86.7 133.27 85.87 134.32C85.6 132.67 86.64 130.22 85.07 128.9C83.36 127.47 81.62 130.58 80.87 129.99C81.75 128.19 84.17 126.94 83.84 124.74C83.71 123.86 81.35 120.56 80.73 119.46C80.39 118.84 79.13 115.81 78.97 115.67C78.53 115.3 78.51 115.74 78.4 116.04C78.14 116.75 78.05 117.99 77.93 118.81C77.28 123.24 76.45 130.06 76.53 134.44C76.56 136.24 77.56 137.32 78.96 138.26C76.93 141.65 79.4 145.97 80.46 149.45C81.14 151.67 81.76 153.93 82.22 156.21C85.42 154.9 87.63 151.46 91.61 152.64C94.5 153.49 97.05 157.55 97.34 160.43C97.85 165.62 90.9 172.74 93.21 177.54C93.52 178.19 93.97 178.83 94.75 178.84C97.59 178.88 98.11 175.85 96.57 173.92C97.19 173.45 98.01 175.04 98.13 175.61C99.21 180.81 92.66 181.55 91.76 177.11C90.56 171.22 94.15 168.04 94.41 163.1C94.58 159.7 92.02 158.09 88.98 159.58C85.42 161.32 87.47 163.26 89.81 165C88 166.07 86.54 166.87 85.43 168.73C83.08 172.68 85.2 174.66 86.16 178.38C87.92 185.2 86.42 192.76 83.63 199.11C82.77 201.07 79.31 208 77.88 209.05C72.16 213.27 69.22 207.27 70.93 202.1C71.83 199.37 75.43 197.49 75.46 201.63C75 201.68 75.22 201.01 74.75 200.84C71.24 199.58 70.52 209.87 74.93 208.53C78.44 207.46 81.41 198.34 81.68 195C81.97 191.33 81.02 182.97 78.93 179.91C77.51 177.82 75.26 176.8 73.03 175.81C74.67 174.95 80.15 171 78.73 168.83C77.75 167.34 75.63 169.68 75.99 171.06C70.98 171.47 69.01 178.41 74.11 180.68C71.16 182.63 68.18 188.72 71.4 191.49C70.84 192.03 70.38 192.66 70.01 193.34C68.02 196.99 65.03 207.26 66.07 211.15C66.52 212.82 67.55 213.35 68.41 214.7C65.98 216.65 65.3 219.71 64.72 222.65C63.62 228.2 63.3 234.1 63.02 239.74L61.98 234.7C60.63 224.87 60.18 208.76 55.4 200.18C53.54 196.84 52.95 197.88 49.77 198.92C51.13 194.75 51.74 191.86 50.77 187.51C49.39 181.36 46.8 177.18 40.62 175.09C41.31 170.42 37.76 165.29 32.84 165.16C29.26 165.06 28.24 167.18 27.9 170.44C27.25 176.69 29.37 183.84 30.3 190L29.26 188.21L24.9 175.14C24.64 177.06 24.34 179.01 24.35 180.96C24.35 182.38 24.52 184.61 24.63 186.08C24.82 188.5 25.43 191.04 25.68 193.42C25.71 193.72 25.92 194.39 25.44 194.33C24.26 189.79 22.75 185.64 22.23 180.92C21.39 173.37 23.31 165.64 21.15 158.21C19.81 153.58 16.84 154.8 13.54 152.57C14.69 152.47 15.86 153.07 16.98 153.19C17.24 153.22 17.83 153.42 17.59 152.85C17.35 152.28 15.81 150.55 15.32 149.71C13.17 146.02 11.64 141.82 11.11 137.57L14.51 143.76C17.57 148.77 23.81 154.61 30.15 153.76C32.19 153.49 34.67 151.97 36.53 151.08C36.21 152.12 35.19 152.74 34.85 153.86C34.36 155.48 34.43 156.83 36.39 157.04C37.69 157.13 44.54 152.67 44.92 152.98C43.39 158.64 43.81 169.24 51.41 169.74C51.33 172.23 51.65 174.71 52.5 177.04C52.99 177.42 53.54 173.79 53.57 173.39C53.72 171.44 53.93 167.71 51.68 167.04V166.51C52.28 166.41 52.96 165.78 53.3 165.29C54.86 163.1 54.1 159.61 54.09 157.18C54.09 155.2 54.89 152.5 53.96 150.57C53.55 149.73 51.66 148.97 51.66 148.26C51.83 147.65 52.36 147.38 52.62 146.78C53.84 143.95 52.29 136.75 51.94 133.39C51.76 131.62 52.01 129.59 51.6 127.78C51.08 125.46 48.93 123.08 46.53 122.71C51.13 119.78 50.9 114.68 51.13 109.88C51.24 107.52 51.91 103.76 50.8 101.55C50.04 100.05 48.38 101.27 48.15 101.08C50.58 97.28 50.33 91.59 50.04 87.16C49.92 85.34 49.33 79.93 48.78 78.42C48.58 77.87 48.31 77.37 47.75 77.11L45.58 78.36C45.25 78.36 44.87 75.48 43.02 76.33C42.46 76.59 36.88 84.92 35.7 86.33C27.94 95.65 15.72 104.95 2.87 102.93L0 102.15C3.14 102.21 6.37 101.85 9.34 100.81C10.72 100.33 14.45 98.58 14.33 96.9C14.26 95.9 11.87 93.52 11.14 92.51C10.66 91.85 8.83 89.31 8.66 88.77C8.37 87.83 10.76 89.45 11.1 89.58C11.55 89.75 14.2 90.65 14.34 90.53C10.74 84.61 8.94 76.65 11.5 69.99C11.68 76.46 13.74 86.54 19.66 90.22C24.74 93.38 27.12 90.89 30.44 87.03C32.49 84.64 36.08 79.01 35.44 75.81C35.11 74.15 27.52 71.98 26.51 70L33.27 71.35C33.44 71.22 31.46 68.91 31.78 68.38C40.12 74.32 43.95 69.04 46.18 61.14C48.2 53.94 51.41 41.49 47.56 34.77C47.32 34.36 46.07 33 46.05 32.83C46.04 32.67 47.19 31.04 47.31 30.1C47.75 26.78 45.05 22.17 43.28 19.45C44.13 18.67 52.15 26.58 51.94 28.37L52.5 28.2C53.8 25.69 55.55 23.39 57.51 21.37C57.79 21.08 57.9 20.68 58.43 20.81C58.03 21.63 57.57 22.42 57.27 23.3C54.33 32.1 54.89 46.45 57.96 55.2C58.04 55.42 59.13 58.07 59.51 57.16C59.49 56.83 59.87 54.29 60.32 54.6C61.58 56.95 65.28 61.7 68.04 61.9C69.89 62.04 70.44 61.17 71.82 60.26C77.23 64.17 82 63.17 87.19 59.68C92.38 56.19 95.08 52.82 96.23 46.82C96.62 44.76 96.99 42.61 96.58 40.54C97.24 41.46 98.94 41.69 99.57 40.62C100.82 38.5 98.57 31.17 97.67 28.77C97.3 27.79 96.76 26.88 96.31 25.94L97.41 26.33C98.95 27.65 100.57 30.58 101.97 31.77C102.95 32.6 103.63 31.62 104.27 30.79C104.66 30.29 109.77 20.38 110.37 21.08C110.1 21.94 109.54 22.67 109.16 23.52C103.12 37.22 106.21 48.53 94.41 60.68C93.59 61.53 89.41 64.39 89.94 65.67C91.34 67.79 94.11 65.01 95.38 63.8C97.57 61.7 99.75 58.93 101.67 56.57C106.28 46.43 112.59 37.23 114.85 26.22C116.3 19.18 117.31 10.64 111.6 5.11C109.32 2.91 105.88 3.93 104.15 6.34C102.09 9.21 102.31 17.54 106.87 16.09C109.71 15.19 111.32 5.98 106.61 8.8C105.35 9.56 105.94 10.2 105.91 11.34C103.56 7.38 110.81 4.52 110.92 9.6C111 13.21 108.01 19.51 103.63 16.6C99.64 13.95 101.96 4.26 106.37 2.88C112.82 0.86 116.89 8.58 117.38 13.95C118.53 26.66 110.54 45.99 104.37 57.12C102.1 61.23 94.38 71.26 94.39 75.29C94.39 76.28 94.77 76.83 95.49 77.45C95.49 77.91 92.17 78.14 93.82 81.56C95.09 84.19 98.65 85.1 101.09 86.46C103.35 87.73 104.85 89.9 104.13 84.77C103.55 80.64 98.87 80.03 95.77 78.8C97.65 77.71 101.81 75.16 100.66 72.56C99.92 70.89 98.37 72.36 97.12 72.05C100 68.77 102.96 65.59 105.45 62C112.41 51.97 119.73 37.69 122.96 25.97C123.21 25.08 123.28 23.91 123.36 22.98L123.91 23.92L124.44 30.28C124.91 30.4 124.98 30.09 125.25 29.88C125.73 29.51 127.83 27.41 128.02 26.97C128.31 26.29 128.66 22.31 128.76 21.22C129.18 16.93 129.22 12.55 129.58 8.25L130.12 5.68C130.14 8.89 130.71 12.08 130.93 15.28C131.04 16.89 130.83 18.53 130.93 20.14C130.99 21.02 131.04 23.87 132.27 23.11L138.77 18.66C136.77 21.03 134.06 23.3 132.32 25.86C131.64 26.87 131.39 28.07 131.49 29.29C131.73 32.24 133.62 40.91 134.94 43.44C135.34 44.21 136.84 45.79 136.89 46.39C136.93 46.92 136.17 47.86 136.07 48.8C136.01 49.36 136.17 52.08 136.38 52.4C136.48 52.55 137.87 52.79 138.37 53.25C140.3 54.98 141.41 63.09 142.43 65.95C143.26 68.29 144.63 70.8 146.34 72.59C146.08 73.02 145.74 72.51 145.52 72.32C143.48 70.53 139.55 64.03 138.56 61.44C137.57 58.85 137.55 53.29 133.63 56.23V49.61C133.63 48.85 132.64 46.27 131.49 47.07C130.56 47.72 130.99 56.31 130.94 58C130.8 61.96 130.07 65.18 130.66 69.34C131.11 72.54 132.54 74.41 135.52 75.7C135.06 76.32 134.33 76.4 134.02 77.31C133.64 78.42 133.53 80.54 133.7 81.71C134.16 84.87 137.42 87.41 138.5 90.3C136.15 88.75 135.1 89.58 133.86 91.74C132.3 94.46 129.93 107.14 130.41 110.15C130.52 110.85 131.35 111.74 131.18 112.29C128.64 113.83 128.19 115.52 127.76 118.35C127.16 122.31 127.56 126.46 131.16 128.86C131.33 133.26 130.99 137.68 131.48 142.06C131.64 143.49 132.04 146.04 132.35 147.41C132.44 147.79 132.68 148.31 133.1 148.42C134.63 142.58 135.44 136.72 137.84 131.12C138.26 130.14 140 127.47 140.08 126.87C140.34 124.94 136.59 120.1 135 118.82C136.12 118.62 138.4 119.65 139.33 119.09C140.97 118.11 139.77 107.65 138.74 105.88C137.78 104.23 136.19 104.31 134.79 103.6C134.61 103.51 134.24 103.54 134.45 103.14C134.6 102.85 136.63 101.48 137.11 100.93C141.01 96.49 142 81.89 139.27 76.69C138.88 75.96 137.59 74.8 137.48 74.43C136.54 71.17 137.11 68.68 134.32 65.69L132.29 64.08C136.53 64.33 139.25 66.9 141.26 70.38C143.27 73.86 143.7 79.37 148.79 79.49C143.93 86.78 152.72 92.21 153.39 99.22C153.86 99.28 153.64 98.61 153.66 98.28C153.83 93.73 154.48 88.67 154.21 84.21C154.1 82.39 154.04 79.74 152.3 78.81L153.79 78.14C154.6 75.92 152.33 75.62 150.97 74.73C148.25 72.96 146.59 71.44 144.95 68.58C143.7 66.4 141.9 62.38 144.03 60.27C145.46 58.86 147.45 60.09 147.16 60.28C141.92 60.06 144.1 65.25 145.86 67.94C146.63 69.11 148.91 71.71 150.12 72.33C151.11 72.84 154.32 73.57 154.87 72.45C155.15 71.87 155.09 66.05 154.98 65.04C154.45 60.25 151.99 55.42 147.98 52.71C150.81 52.39 154.62 58.77 156.48 58.65C158.54 58.51 159.86 53.43 160.77 51.83L162.31 41.89C165 51.48 157.55 60.13 159.61 69.73C160.16 69.85 160.24 69.45 160.47 69.11C161.3 67.89 163.19 63.15 163.15 61.76C163.12 60.94 162.49 60.05 162.56 59.64C162.58 59.51 163.21 59.24 163.46 58.87C164.46 57.38 165.18 55.59 165.81 53.91L167.18 48.12C168.42 52.49 169 58.71 173.55 60.81C172.81 63.51 172.6 67.12 176.1 67.6C175.42 69.96 175.95 71.61 178.69 71.39C180.98 71.2 180.53 67.64 180.02 65.98C179.76 65.13 178.54 63.4 178.55 62.86C178.56 62.48 179.14 61.81 179.27 61.17C180.7 54.29 179.88 42.38 177.11 35.89C175.79 32.8 173.23 30.3 172.85 27.04C173.66 27.57 173.82 28.68 174.35 29.45C175 30.4 175.81 30.87 176.5 31.62C177.26 32.45 177.62 33.94 178.95 34.05C180.28 34.16 180.4 33.02 180.62 31.96C181.84 25.97 181.38 18.8 182.08 12.61C182.56 8.37 183.66 4.18 184.48 0L185.34 0ZM128.26 32.44C127.6 32.36 127.3 33.03 127.03 33.51C125.12 36.86 124.06 42.44 124.48 46.23L126.07 43.9C127.7 40.31 128.03 36.34 128.27 32.45L128.26 32.44ZM119.06 48.53C118.89 49.81 119.18 51.4 119.06 52.72C113.62 51.26 114.39 59.38 113.65 62.72C113.19 62.78 113.39 62.06 112.95 61.92C111.46 61.44 110.75 64.46 110.25 65.13C109.92 65.58 109.23 65.69 108.87 66.05C107.73 67.2 107.54 70.72 107.73 72.28C107.85 73.28 108.5 74.4 108.53 75.29C108.59 76.99 107.71 79.14 107.97 81.5C108.23 83.86 110.22 85.82 112.44 84.07C114.66 82.32 119.87 74.6 119.87 71.76V67.84C120.26 67.78 120.22 68.29 120.34 68.58C122.68 74.45 122.43 82.55 121.41 88.7C120.68 93.07 119.08 97.16 117.47 101.25C117.21 101.91 117.19 102.02 117.17 101.22C117.61 98.43 118.66 95.77 119.25 93.02C119.59 91.46 120.95 85.81 119.33 84.97C117.32 83.94 116.78 89.66 116.9 90.8C116.01 90.77 116.03 89.74 115.21 89.38C113.33 88.56 111.2 90.57 111 92.36C110.52 96.55 111.84 103.16 113.97 106.84C114.16 107.18 114.47 107.41 114.73 107.7C114.19 108.32 113.48 108.8 113.06 109.54C111.54 112.22 112.28 117.42 112.32 120.4C112.37 124.91 112 130.02 113.19 134.4C113.64 136.05 115.16 136.36 116.37 137.44C117.58 138.52 119.22 140.12 120.29 141.36C122.09 143.43 123.35 145.95 125.29 147.85C125.01 144.36 125.88 139.21 124.62 135.95C123.79 133.81 120.28 133.99 120.15 133.38C120.43 132.22 121.75 131.22 121.98 130.08C122.88 125.72 120.43 121.4 119.05 117.46C122.11 116.61 126.22 113.31 123.13 110.14C122.62 109.62 121.85 109.48 121.51 108.92C122.26 108.76 123.13 108.23 123.68 107.71C126.75 104.85 129.91 91.61 129.28 87.49C129.12 86.43 128.71 85.48 127.72 84.98C129.65 81.91 129.61 77.49 127.18 74.72C127.76 73.74 128.15 72.9 128.26 71.74C128.68 67.56 127.79 62.61 127.98 58.22C128.07 56.15 129.08 52.01 128.49 50.16C128.05 48.77 126.79 50.5 126.51 51.34C125.69 53.73 124.97 60.88 125.69 63.24C125.88 63.87 126.56 64.68 126.59 65.03C126.62 65.38 125.91 66.78 125.82 67.68C125.51 71.05 126.25 74.36 126.38 77.68C126.76 87 125.51 96.28 121.46 104.69C120.69 106.3 119.82 108.28 118.53 109.46C120.59 103.61 123.1 98.19 124.13 91.94C125.09 86.12 124.76 77.92 123.91 72.05C123.65 70.22 123.17 66.95 120.97 66.74C120.61 66.34 122.73 65.21 122.28 63.69C121.75 61.9 119.36 64.15 118.67 64.84C117.15 66.35 113.83 70.67 112.85 72.54C112.14 73.91 111.57 75.76 111.23 77.28C110.96 77.4 110.69 76.65 110.69 76.61V72.28C110.69 71.17 112.35 67.83 113.01 66.76C115.12 63.32 118.26 60.27 120.38 56.8L120.03 55.64L117.99 54.85C120.74 54.23 121.85 48.82 120.96 46.6C120.21 44.73 119.19 47.61 119.07 48.49L119.06 48.53ZM83.63 71.91H79.17C77.37 71.91 73.97 70.17 72.07 69.81C71.69 69.74 71.3 69.72 70.92 69.75C71.67 71.47 73.17 72.62 74.44 73.94C73.52 74.02 72.35 73.1 71.38 72.67C68.78 71.52 62.77 68.73 60.28 70.6C57.79 72.47 57.8 81.68 58.61 84.35C59.42 87.02 61.64 88.35 63.89 89.62C63.04 90.86 62.11 91.64 61.31 92.99C58.36 98.03 58.96 103.98 58.76 109.63C58.55 115.68 58.25 121.66 59.02 127.73C59.34 130.27 59.84 132.89 62.8 133.28C61.6 135.15 60.12 136.04 60.1 138.55C60.1 139.49 60.71 144.12 61.04 144.9C61.37 145.68 62.26 146.62 63.07 146.8C62.86 147.24 62.44 147.48 62.2 147.96C61.25 149.87 61.6 161.08 62.11 163.57C62.5 165.48 63.15 167.59 64.96 168.56C63.28 168.97 63.11 170.53 63.07 172.08C63.05 172.79 63.61 177.88 64.02 177.89C64.97 176.17 64.84 174.11 65.1 172.21C68.11 169.97 72.8 167.04 72.27 162.75C77.24 164.6 77.84 160.78 75.11 157.34C73.82 155.71 72.54 155.75 70.94 154.78C73.98 150.41 73.82 146.52 71.77 141.75C70.61 139.06 68.03 134.35 64.96 133.82C65.89 130.36 64.67 126.84 63.61 123.55C65.21 124.64 67.82 130.36 69.98 128.16C71.83 126.28 71.02 117.4 68.76 115.34C69.27 114.74 69.88 114.25 70.16 113.47C71.09 110.91 70.78 101.45 70.64 98.27C70.48 94.82 68.81 83.4 66.97 80.85C64.59 77.55 62.19 80.24 60.09 82.18C60.91 77.48 63.69 75.55 68.27 77.66C69.08 78.03 70.25 79.26 71.02 79.22C76.1 77.22 81.96 71.63 87.14 76.38C83.69 76.01 80.07 78.39 77.94 80.97C76.29 82.96 74.98 85.45 78.49 86.25C78.24 86.95 76.99 86.6 76.44 87.03C75.33 87.9 77.08 92.04 77.34 93.48C77.77 95.9 77.77 103.93 81.29 103.99C82.12 104.01 85.72 103.01 86.08 103.28C85.28 104.39 84.07 105.77 83.91 107.19C83.5 110.84 88.39 117.77 90.19 121.21C90.55 121.9 90.71 122.92 91.11 123.53C91.66 124.37 92.59 124.29 92.92 124.96C93.27 125.69 93.02 126.61 93.18 127.4C94.39 133.41 98.48 131.42 97.25 126.57C97.03 125.69 95.48 122.33 94.96 121.56C93.98 120.13 92.39 119.45 91.25 118.22C91.36 116.22 92.59 111.61 91.72 109.93C91.44 109.38 90.39 108.86 90.4 108.28C92.29 105.52 91.88 101.79 91.41 98.62C90.94 95.45 87.4 84.32 85.23 82.09C85.04 81.89 81.41 79.66 82.69 79.49C83.74 79.45 84.76 79.86 85.71 80.25C88.4 81.36 89.67 83.46 89.31 78.55C89.07 75.24 87.97 72.09 85.26 70.03C87.37 69.72 89.57 70.05 89.29 67.23C88.83 65.85 84.01 67.94 83.23 68.67C82.76 69.11 82.46 69.77 82.55 70.42C82.69 71.45 83.76 71.01 83.64 71.92L83.63 71.91ZM191.28 68.66L185.5 71.93C184.05 73.34 186.08 74.12 186.16 74.74C186.27 75.54 185.61 76.58 185.6 77.44C185.6 78.15 186.63 83.77 186.92 84.17C187.46 84.92 189.5 83.64 189.65 83.79C189.59 84.62 188.5 85.53 189.54 86.19L199.4 83.92L198.95 82.73L195.34 83.25C195.54 82.62 196.23 82.06 196.37 81.44C196.65 80.19 195.18 76.34 193.45 77.58L191.28 68.66ZM171.8 71.37C170.51 70.57 171.27 74.11 171.28 74.46C171.36 77.09 171.04 80.03 171.26 82.59C171.39 84.07 172.42 85.62 172.37 86.63C172.31 88.01 171.24 89.98 171.25 92.04C171.25 92.82 171.63 96.57 171.87 97.11C172.39 98.28 173.39 96.8 174.23 96.74L173.71 95.14C176.82 96.14 179.64 92.3 179.61 89.59C179.6 88.58 178.72 87.5 178.84 86.63C178.93 86.01 179.71 85.67 179.88 84.94C180.15 83.77 179.9 79.09 179.14 78.22C178.56 77.56 177.24 77.53 176.42 77.56C177.32 76.48 178.61 75.35 178.2 73.76C176.18 73.43 173.96 73.04 172.16 71.96C171.72 71.7 171.85 71.36 171.82 71.35L171.8 71.37ZM165.59 71.91C165.09 71.38 163.13 74.01 162.62 74.48C161.63 75.38 159.89 76 159.66 77.47C159.45 78.8 159.52 82.96 159.93 84.2C160.49 85.92 162.77 86.7 162.88 87.22C163.02 87.89 161.53 88.3 161.13 88.67C159.02 90.63 159.83 97.46 159.64 100.18L160.19 106.25C160.67 106.58 164.38 103.65 165.03 103.11C165.68 102.57 167.34 101.48 167.49 100.7C167.78 99.16 167.56 95.18 167.51 93.4C167.42 90.66 167.26 86.05 166.28 83.55C165.93 82.67 164.83 81.64 164.79 80.95C164.75 80.26 165.34 79.99 165.48 79.49C166.18 76.96 165.85 74.48 165.61 71.92L165.59 71.91ZM210.16 87.65C209.7 87.19 206.06 87.12 205.74 87.57C204.94 88.45 207.7 91.5 207.52 91.64C204.75 90.75 201.85 94.01 201.1 96.45C200.35 98.89 200.78 101.03 202.65 102.72C198.19 104.21 198.04 112.18 202.74 113.54L202.92 114.08C202.38 114.13 201.95 114.39 201.55 114.75C200.3 115.87 197.22 122.4 197.91 123.82C198.97 125.99 200.19 121.89 200.5 121.67C200.81 121.45 201.56 122.32 202.18 122.16C204.02 121.68 207.1 113.53 208.06 111.65C208.6 111.92 208.36 112.78 209.14 113.13C211.47 114.17 213.09 110.62 212.92 108.84C212.73 106.91 208.57 104.31 207.25 102.87C210.74 102.16 210.51 97.84 210.51 95.02C210.51 94.32 210.21 93.64 210.2 92.87C210.19 91.25 211.03 89.29 210.16 87.66V87.65ZM196.16 91.38C196.95 90.91 200.22 90.23 200.23 89.35C200.23 87.83 196.95 89.38 196.25 89.7C195.05 90.26 190.19 93.04 189.71 93.98C188.57 96.21 190.62 97.7 191.57 99.48C187.54 97.96 187.59 99.25 187.04 102.93C186.34 107.58 187.73 111.15 190.17 115.07C190.89 116.23 191.42 117.09 192.92 117.33C193.15 117.64 191.38 118.09 191.04 118.29C189.42 119.22 187.91 120.97 188.77 122.95C189.12 123.76 192.97 123.5 193.92 124.32L194.27 124.25C195.55 121.77 195.17 117.57 193.97 115.07C193.44 113.98 192.64 113.3 192.18 111.99C190.08 106.01 193.84 101.92 195.94 96.7C196.7 94.83 198.01 92.95 196.16 91.38ZM103.31 90.36C102.63 89.57 99.29 90.09 98.84 91.3C98.31 95.58 97.48 99.88 97.45 104.19C97.66 105.65 98.18 106.26 99.6 106.65C97.07 111.64 96.8 117.61 97.78 123.06C98.01 124.35 99.18 128.66 99.86 129.56C100.39 130.27 102.21 130.89 103.11 130.84C99.54 133.88 96 138.92 97.5 143.88C98.51 147.24 101.84 143.08 101.49 141.11C101.55 141.04 101.84 141.25 101.9 141.38C102.3 142.18 101.95 145.63 102.06 146.89C102.27 149.16 102.8 152.38 103.19 154.68C103.33 155.49 104.01 159.92 105.41 158.41L106.89 154.89C107.47 157.85 112.28 165.5 115.68 164.9C116.37 164.78 116.49 164.4 116.31 163.74C116.13 163.08 114.46 160.13 113.97 159.3C110.34 153.05 104.33 148.27 102.69 140.57C102.59 140.11 102.27 138.61 102.83 138.4C102.88 139.17 103.15 139.89 103.5 140.57C103.88 141.3 106.26 145.21 107.16 144.35C106.9 142.42 108.65 136.23 105.94 135.71C103.61 135.26 102.42 136.54 100.8 137.86L98.78 140.3C99.23 138 101.07 135.17 103.01 133.86C105.35 132.28 107.06 133.48 107.43 129.89C107.64 127.77 107.29 122.35 106.23 120.55C105.17 118.75 103.47 119.86 102.02 118.81C101.98 118.73 103.39 118.18 103.63 117.99C105.32 116.61 105.75 111.23 105.82 109.09C105.91 106.46 105.54 103.89 105.5 101.28L105.09 100.87C103.44 100.61 101.93 101.29 100.94 102.59C100.49 103.17 100.39 103.98 99.86 104.34C99.61 101.76 101.28 99.53 101.48 97.04C101.37 96.94 99.96 97.29 99.86 96.5C101.52 95.94 104.71 91.97 103.31 90.35V90.36ZM179.29 108.58C180.39 107.47 181.37 104.03 179.74 103.05C178.68 102.41 173.97 103.68 173.31 104.63C172.44 105.9 173.15 107.28 173.17 108.53C173.21 110.9 172.76 118.96 174.52 120.43C174.99 120.82 175.73 120.72 176.13 121.25C172.38 122.81 174.49 126.72 174.52 129.64C174.52 130.39 173.69 134.15 174.65 134.36C175.36 134.51 175.42 132.4 176.02 131.68C176.54 131.06 178.92 128.62 179.52 128.15C181.56 126.58 182.5 127.52 182.86 124.19C183.15 121.54 182.89 114.43 182.28 111.86C182.14 111.29 181.76 109.86 181.28 109.61C180.3 109.11 178.92 110.38 178.03 109.35C177.99 109.26 179.05 108.83 179.29 108.58ZM146.38 104.89V111.51C146.38 112.33 149.73 111.34 150.04 110.84C151.04 109.19 147.67 105.84 146.38 104.89ZM169.37 135.71C169.18 133.12 169.59 130.28 169.49 127.74C169.42 125.85 168.89 123.7 168.82 121.8C168.69 118.27 169.1 114.45 168.82 110.98C168.72 109.69 168.02 108.39 168.24 106.96L167.62 106.51C166.36 107.34 161.32 108.64 160.74 109.65C160.53 110.01 160.48 110.29 160.43 110.7C160.1 113.58 159.87 119.51 160.56 122.21C161.21 124.77 163.05 124.36 165.03 125.3C164.32 125.91 162.14 129.98 162.44 130.57C163.2 131.24 164.12 131.23 165.01 131.8C165.51 132.12 167.26 133.54 167.7 133.97C168.29 134.54 168.47 135.67 169.35 135.7L169.37 135.71ZM218.61 114.08C218.25 113.67 216.81 115.99 216.59 116.24C214.81 118.2 212.93 120.23 210.9 121.91L210.76 120.56C208.48 121.09 208.16 123.7 206.97 125.29C205.99 126.61 204.37 127.44 203.18 128.53C202.71 128.96 200.5 131.04 200.35 131.38C199.87 132.42 201.14 137.19 201.7 138.41C202 139.06 202.61 139.35 202.65 140.03C199.86 138.41 199.26 135.51 198.15 132.71C197.15 132.51 193.51 134.68 192.77 135.43C192.25 135.96 192.21 136.73 191.56 137.05C191.76 133.71 192.16 130.42 193.12 127.21C189.39 123.86 188.54 127.65 188.3 130.95C188.1 133.66 188.74 141.75 189.65 144.22C189.99 145.16 191.23 146.27 191.28 146.92C191.32 147.36 191.02 147.82 191.01 148.26C190.98 152.22 191.09 154.91 193.44 158.24C193.33 158.71 191.69 158.84 191.27 159.39C188.74 162.67 189.74 170.83 189.1 174.99C188.81 176.85 187.9 178.88 187.77 180.82C187.3 180.88 187.52 180.21 187.5 179.88C187.26 173.79 187.37 162.44 184.31 157.12C182.93 154.72 179.53 156.41 179.37 155.52C179.96 153.58 181.33 151.98 182.03 150.08C184.25 144.05 183.29 136.6 183.32 130.27C181.78 129.42 182.41 132.64 182.63 133.52L181.2 132.74C180.02 133.54 179.85 135.17 179.93 136.5L182.09 136.9C179.7 137.93 176.49 141.29 180.19 142.85C177.01 146.66 178.3 152.04 178.03 156.64C177.98 157.44 177.55 158.14 177.48 159.06C177.16 162.78 177.59 167.1 177.76 170.83C177.37 170.83 177.24 170 177.14 169.69C175.98 165.72 175.91 161.09 174.64 157.32C174.07 155.62 172.95 152.88 170.72 154.07C171.2 152.72 171.98 151.65 172.08 150.16C172.26 147.54 170.38 143.07 168.42 141.36C167.97 140.97 167.34 140.87 166.93 140.42C166.44 139.9 166.37 139.03 165.84 138.53C165.27 138 162.61 136.78 162.07 137.77C161.15 139.45 162.14 146.97 161.25 149.32L161.65 158.4C161.91 159.18 163.96 160.09 164.75 160.71C167.71 162.98 172.68 167.84 173.78 171.42C174.7 174.4 174.59 177.74 174.36 180.82C175.58 181.81 176.94 182.15 178.02 183.4C179.23 184.81 181.88 190.97 183.09 191.32C183.99 191.58 184.77 191.07 185.33 190.42C186.44 189.15 188.47 185.34 189.16 183.71C191.02 179.33 191.58 174.55 192.9 170.01L193.79 174.12C198.2 187.73 217.03 181.09 213.54 167.62C212.8 164.77 209 165 208.59 163.92C208.41 163.44 210.52 162.56 210.76 162.04C211.96 160.45 211.94 158.53 211.85 156.62C211.82 155.93 211.65 154.33 211.51 153.71C211.08 151.85 207.28 151.06 205.62 151.35C206.98 149.18 209.38 145.3 204.81 145.67L207.74 143.06L209.15 138.55C208.05 137.69 206.74 137.9 205.47 137.84C205.16 137.82 204.73 138.02 204.8 137.57C205.15 137.55 205.58 137.59 205.89 137.45C206.72 137.07 213.18 130.82 213.73 129.87C215 127.69 215.63 125.22 215.35 122.7C214.13 122.3 213.44 123.77 212.38 123.38C213.52 122.35 219.59 115.2 218.6 114.05L218.61 114.08Z" fill="black"/>
<path d="M267.3 32.17C266.65 33.81 265.93 35.27 265.53 37.02C264.62 41.02 264.35 44.6 265.66 48.53C266.56 51.23 268.57 54.88 271.89 54.06C271.59 55.18 271.02 56.35 270.88 57.51C270.63 59.51 271.33 64.02 272.03 65.95C273.86 70.99 279.92 70.93 284.33 69.74C281.99 72.9 280.05 76.67 282.06 80.52C282.96 82.25 284.43 82.43 285.92 83.42C286.15 84.43 285.65 85.36 285.66 86.35C285.7 90.35 289.37 95.19 293.26 96.22C288.93 99.4 283.72 102.29 286.23 108.65C283.08 107.67 278.39 108.22 276.27 111C272.3 116.19 275.48 126.62 280.28 130.42C282.47 132.16 284.39 132.33 287.03 131.37C288.49 137.99 294.38 134.34 297.32 131.1L293.26 142.3C293.36 143.03 296.83 146.04 297.59 146.92C299.89 149.57 303.39 153.89 303.56 157.45C303.59 158.09 303.56 158.13 303.22 157.52C301.81 155 299.24 152.46 296.11 152.72C292.13 153.05 288.43 157.64 287.3 161.22C286.96 162.3 287.08 163.47 286.51 164.48C281.78 166.6 273.25 169.82 272.7 175.82C272.51 177.89 272.71 180 273.52 181.91C270.31 182.39 269.45 187.25 268.73 189.96C265.49 202.08 264.49 215.13 263.38 227.6C263.25 227.6 263 226.12 262.98 225.84C262.27 217.3 261.96 208.7 261.08 200.16C260.68 196.25 259.99 186.54 258.33 183.45C257.38 181.69 256.53 182.2 255.17 181.2C255.04 175.27 250.03 163.65 243.1 163.59C242.03 163.59 239.29 164.67 238.62 164.22C238.3 164 236.97 158.06 236.34 156.76C235.61 155.26 233.1 151.95 231.69 151.13C227.65 148.79 223.13 152.25 222.12 156.22C221.65 156.22 221.82 155.04 221.84 154.72C222.35 147.03 227.17 145.29 230.92 140.27C232.62 137.99 230.81 137.86 229.7 136.34C228.43 134.6 228.16 131.81 228.08 129.72L229.69 132.02C232.4 135.89 239.66 135.57 238.89 129.99C244.6 132.68 248.83 123.14 249.18 118.78C249.57 113.83 247.16 109.88 242.4 108.23C241.26 107.84 236.88 107.31 236.45 106.88C235.87 106.3 236.34 103.66 236.13 102.61C235.43 99.2 232.47 98.89 229.7 97.95L224.29 95.11C226.88 94.88 230.55 93.71 232.46 91.86C234.37 90.01 234.78 86.81 235.63 84.41C236.85 84.23 237.73 84.36 238.96 83.96C242.11 82.93 241.1 79.9 242.11 77.38C242.19 73.82 240.15 70.36 237.8 67.81C240.4 67.99 244.32 70.33 246.46 68.21C248.45 66.24 250.77 58.76 250.24 56.05C250.01 54.88 247.49 54.49 247 53.21C250.24 53.96 252.46 53.33 254 50.34C256.17 46.13 256.97 40.24 255.8 35.63C255.68 35.15 255.11 34.65 255.12 34.14C255.12 33.86 256.57 32.04 256.87 31.31C257.42 29.98 258.39 26.06 258.38 24.69C258.38 23.87 257.82 22.86 257.89 22.29C257.94 21.86 258.59 21.19 258.77 20.51C260.16 15.44 260.09 9.5 260.79 4.28C261.26 4.22 261.04 4.89 261.06 5.22C261.35 12.2 260.44 19.09 262.22 25.96C262.88 28.5 264.43 31.68 267.29 32.12L267.3 32.17ZM265.14 82.72C265.62 81.25 266.82 79.78 266.97 78.18C267.39 73.92 264.25 70.98 261.83 68.04L260.54 64.34C260.43 65.87 259.06 67.19 258.76 68.65C258.46 70.11 258.89 71.33 258.24 72.72C257.59 74.11 255.76 74.25 255.51 76.23C255.34 77.56 255.97 78.99 256.75 80.02C252.32 79.33 250.72 84.66 251.34 88.13C250.07 86.81 249.3 87.33 247.92 88.09C246.89 88.65 243.11 91.74 242.8 92.72C242.49 93.7 243.51 93.89 243.72 94.81C243.87 95.49 243.67 96.23 243.8 96.89C244.12 98.5 244.68 101.02 246.47 101.38C246.68 99.93 247.47 98.4 248.91 97.86C245.55 104.81 256.61 108 259.11 101.7L260.54 97.59C260.6 100.09 262.19 104.04 264.6 105.02C268.34 106.54 272.24 102.69 270.55 98.94C271.94 98.84 272.32 102.72 272.85 102.72C275.91 100.61 274.22 96.37 276.77 94.21V93.81C272.72 92.88 272.15 88.33 270.38 85.19C269.16 83.01 267.89 80.55 265.14 82.72ZM262.7 145.98C262.24 142.48 260.85 139.36 258.75 136.54C257.02 134.22 255.35 132.21 252.28 131.92C249.21 131.63 246.7 133.17 245.38 135.97C246.26 136.01 247.06 135.74 247.94 135.69C248.25 135.67 249.44 135.5 249.44 135.97C245.02 136.94 240.02 143.16 243.62 147.34C244.68 148.57 245.86 148.48 247.17 149.22C246.55 152.88 250.17 159.41 254.19 155.45C254.86 154.79 255.2 153.59 255.94 153.01C255.76 154.91 255.39 156.65 255.93 158.56C256.63 161.04 258.89 163.19 260.14 165.43C261.24 167.41 261.95 169.59 262.84 171.66C263.2 165.85 268.81 161.57 267.31 155.71C272.52 162.74 278.77 156.21 277.42 149.48C282.5 148.27 281.87 140.34 278.8 137.33L278.13 141.11C277.7 136.93 273.04 131.67 268.8 134.9C265.62 137.33 264.36 141.85 263.11 145.43C263.02 145.69 263.08 146.05 262.71 145.97L262.7 145.98Z" fill="black"/>
<path d="M282.35 28.56C281.58 29.31 280.2 29.67 279.2 29.19C279.46 28.71 280.37 28.98 281.02 28.72C284.25 27.42 282.71 20.26 277.97 20.53C274.58 20.73 272.97 23.46 273.25 26.62C273.85 33.48 279.93 36.91 285.94 33.09C287.5 32.1 288.7 30.24 290.37 29.41C294.13 27.54 297.29 28.93 300.54 30.97C301.72 31.71 303.96 34.13 305.08 33.16L306.78 27.84C307.44 32.58 306.68 35.84 312.18 36.91C318.09 38.06 323.15 37.25 327.99 41.92C340.06 53.58 333.09 77.95 323.55 89.33C318.82 94.97 309.3 99.11 309.29 107.11L309.75 108.94C311.21 104.79 314.05 101.13 317.62 98.56C321.42 95.82 323.69 95.88 326.03 100.11C329.53 106.44 329.66 113.15 327.74 120.03C327.37 121.34 325.16 126.1 325.18 126.63C325.21 127.5 326.5 130.42 326.76 131.83C327.14 133.85 327.4 136.48 327.6 138.56C327.83 140.91 327.48 146.12 328.56 147.87C328.89 148.41 329.94 149.38 330.58 149.51C327.46 151.98 328.19 157.16 331.06 159.51C333.06 161.16 334.26 159.96 336.26 159.24C336.12 161.15 332.81 162.07 334.93 163.68C336.91 165.18 338.65 164.71 339.83 167.7C340.77 170.07 339.81 170.51 339.83 172.36C339.83 173.62 341.09 173.37 342.05 173.87C348.82 177.4 342.14 184.55 345.07 188.43C347.34 191.44 351.15 186.25 352.5 184.65C351.82 187.8 353.85 193.1 357.88 191.25C363.46 188.68 366.58 180.86 374.07 179.58C379.22 178.7 380.71 181.64 381.91 185.95C384.39 194.83 382.49 209.72 392.45 214.89C401.77 219.72 412.99 210.44 405.79 202.37C402.61 198.8 398.34 202.7 401.05 206.3L403.09 207.37C395.95 208.3 397.89 197.43 403.24 196.58C408.59 195.73 412.12 200.51 412.76 205.15C414.97 221.24 394.18 226.31 383.75 214.68C382.9 213.73 380.92 210.32 379.69 210.36L373.34 215.48C373.98 213.56 374.33 211.63 374.65 209.63C375.43 204.83 377.57 193.95 375.56 189.88C373.99 186.71 371.86 188.09 369.58 189.42C362.85 193.32 359.18 200.16 356.84 207.37C356.35 207.43 356.61 206.79 356.65 206.5C357 203.89 358.07 201.13 355.77 198.86C352.95 196.09 350.8 200.2 348.74 201.7C348.1 190.55 341.08 198.34 337.92 203.05L341.4 186.66C341.5 184.56 341.75 181.31 339.8 179.95C336.32 177.52 333.21 181.98 330.35 183.32C330.84 182.02 331.58 180.82 332.1 179.53C334.61 173.24 335.24 166.85 327.52 164.39C326.88 164.18 323.86 163.83 323.86 163.46C324.38 162.96 324.75 162.2 324.87 161.5C325.55 157.41 325.38 148.92 323.36 145.3C322.12 143.06 319.96 141.64 317.36 142.51C318.47 139.89 321.48 141.1 323.31 142.24C322.64 135.94 323.45 127.58 317.09 123.99C318.38 123.74 319.15 124.08 320.02 122.87C321.11 121.36 322.54 116.65 322.73 114.77C323.07 111.52 323.15 102.36 317.64 106.44C315.65 107.91 314.9 111.62 315.2 113.98C315.27 114.55 315.79 115.01 315.74 115.61C315.68 116.26 314.65 116.77 314.32 117.46C312.24 121.77 314.44 128.43 314.66 132.92C315.17 143.7 313.33 154.86 314.38 165.64C314.97 171.71 316.79 178.45 324.39 177.13C323.43 178.09 322.31 178.6 321.42 179.7C318.84 182.88 317.6 189.31 320.34 192.66C322.12 194.84 325.18 195.45 327.45 196.91C330.96 199.16 334.29 204.66 330.88 208.35C329.32 210.04 326.69 209.56 326.56 207.14C330.12 211.24 332.32 205.46 330.07 202.41C327.66 199.13 323.55 198.74 320.07 197.27C316.59 195.8 313.77 193.76 311.81 190.38C310.98 190.18 307.92 195.93 307.35 196.87C306.96 196.95 307.06 196.57 307 196.29C306.81 195.48 306.77 193.08 305.6 193.08C304.83 193.08 304.48 194.42 304.02 194.89C300.47 198.52 291.11 200.09 287.33 196.21C281.49 190.21 283.59 178.41 291.4 175.12C295.39 173.44 299.89 175.27 301.01 179.57C302.05 183.57 295.34 186.99 294.38 181.74C297.61 184.65 301.15 181.46 297.91 178.08C296.42 176.52 295.06 176.74 293.08 177.33C288.58 178.68 286.44 185.56 287.95 189.66C288.94 192.33 292.22 195.09 295.2 194.32C296.02 194.11 300.46 190.96 301.15 190.27C307.6 183.77 307.98 161.35 306.47 152.76C305.78 148.82 304.19 145.24 301.75 142.1C302.07 140.62 302.93 139.32 303.38 137.89C305.51 131.21 304.29 121.69 301.47 115.33C302.25 113.54 303.55 111.9 303.57 109.83L300.31 114.27C297.26 115.96 293.72 116.21 291.45 113.16C289.52 110.57 289.1 105.02 291.8 102.8C294.5 100.58 298.61 102.4 298.14 105.89C297.77 108.67 293.53 109.05 293.83 105.78C294.36 105.82 294.07 106.69 294.43 107.07C294.89 107.55 296.01 107.41 296.38 106.85C297.96 104.48 294.23 101.51 292.32 104.96C290.09 108.98 293.6 114.3 298.13 111.85C301.12 110.24 302.66 102.59 302.49 99.42C302.28 95.51 300.96 89.95 297.07 88.21C300.8 85.06 302.29 78.49 300.99 73.89C300.26 71.3 298.42 68.78 295.45 69.29C296.71 65.85 295.64 62.09 294.49 58.76C292.89 54.12 290.03 50.09 287.33 46.05L293.55 50.51C296.07 51.77 299.49 50.04 300.97 47.93C304.17 43.36 301.11 34.07 296.4 31.45C290.77 28.32 288.82 34.72 283.76 36.14C273.23 39.08 267.98 25.37 274.8 20.7C280.81 16.57 286.09 25.06 282.37 28.67L282.35 28.56ZM318.15 55.15C318.89 51.76 316.92 45.1 312.61 45.4C310.57 45.54 308.32 48.68 307.99 50.54C307.38 53.99 307.69 61.81 307.86 65.57C307.98 68.26 308.28 71.79 308.72 74.45C309.16 77.11 309.79 80.4 312.21 81.79C310.81 84.22 308.36 86.49 309.77 89.49C310.48 89.57 310.2 89.49 310.31 89.09C311.93 83.63 315.29 83.03 318.56 79.22C319.98 77.56 322.35 74.43 320.19 72.45C319.28 71.62 318.87 72.21 317.88 72.05C321.79 67.62 324.98 63.57 324.08 57.2C323.65 54.2 320.31 53.13 318.16 55.15H318.15Z" fill="black"/>
<path d="M474.5 187.34L475.36 189.05C476.59 190.86 477.36 191.71 479.71 191.33C482.19 190.93 487.37 189.16 489.74 188.11C491.66 187.26 498.95 182.9 500.2 181.53C502.71 178.78 504.31 170.37 504.76 166.62C506.03 155.96 504.91 141.24 490.19 144.89C490.95 143.17 492.01 141.61 492.48 139.75C493.06 137.45 493.87 132.54 490.11 133.33C486.69 134.05 484.29 140.96 484.23 144.08C483.77 143.85 483.71 143.21 483.29 142.72C478.83 137.57 477.5 147.83 481.39 150.57L483.69 151.65C480.22 152.46 477.48 155.11 475.63 158.06L473.42 162.2C474.32 154.24 471.76 144.43 463.95 140.84C467.76 134.47 469.06 126.18 468.56 118.8C468.25 114.2 466.66 106.31 460.37 108.74L458.54 110.02C459.32 107.69 461.74 106.84 463.4 105.26C463.53 104.56 459.47 102.44 459.36 101.1C461.64 101.39 462.57 100.82 463.34 98.72C464.54 95.45 464.08 92.14 464.21 88.78C464.33 85.85 465.63 83.41 463.26 80.83C461.43 78.84 455.21 79.11 452.59 78.52C458.66 73.22 464.31 67.24 467.13 59.53C469.39 53.35 468.21 48.36 465.62 42.52L462.87 37.3C463.91 37.68 464.51 38.25 465.71 38.38C471.53 39.01 477.65 33.15 482.07 30L479.4 34.22C477.74 37.89 477.63 41.26 480.99 43.92C475.18 49.21 475.72 56.74 477.02 63.85C478.32 70.96 482.51 82.04 492.09 78.66C492.22 78.79 491.08 81.2 490.93 81.69C489.35 87.16 489.24 99.22 495.33 102.04C497.58 103.08 503.86 104.22 506.22 103.74C510.81 102.8 512.33 96.08 508.4 93.57C506.21 92.17 505.18 93.08 502.9 93.12C504.58 91.83 506.11 91.01 508.33 91.48C509.2 91.67 509.68 92.27 510.48 92.44C510.18 86.57 506.11 83.34 501.51 88.47C501.3 88.7 501 89.36 501.02 88.52C506.95 79.86 512.1 86.56 513.39 93.99C514 97.51 513.35 99.11 513.19 102.3C513.03 105.49 513.97 104.52 515.89 105.54C521.11 108.3 522.87 115.45 522.38 120.94C521.71 128.45 514.85 136 507.24 136.76L510.36 134.61C513.41 132.2 520.1 122.72 514.74 119.95C511.13 118.09 510.16 121.64 507.25 122.7C509.14 119.6 513.61 114.4 509.69 111.21C508.07 109.89 505.87 109.84 504.27 111.21L501.57 114.32C501.6 111.37 499.17 108.98 496.43 108.24C493.69 107.5 491.28 107.88 488.72 105.94C484.47 102.73 482.06 93.78 482.09 88.64C480.03 88.98 477.99 90.53 476.07 88.92C474.98 88 473.61 83.46 473.25 81.94L471.27 68.64C469.76 73.58 469.9 78.3 469.64 83.37C469.34 89.29 467.91 102.4 472.08 106.89C473.17 108.07 474.78 108.57 476.14 109.33C474.81 111.14 473.67 112.09 473.44 114.47C473.03 118.73 473.81 124.26 473.72 128.81C473.69 130.17 473.78 131.61 473.72 132.86C473.66 134.39 473.18 136.08 472.89 137.59C474.53 136.96 474.9 133.35 475.88 132.6C476.75 131.94 478.11 131.79 478.73 130.31C482.17 132.55 484.9 128.36 485.91 125.46C489.31 125.88 491.69 123.63 493.71 121.23L496.42 117.32C496.17 121.94 498.75 128.33 504.27 127.86C502.31 129.55 500.25 130.85 498.75 133.02C495.73 137.37 495.83 140.78 501.71 141.64C504.49 142.05 507.11 142.06 509.76 141.04C511.39 140.41 512.56 139.08 514.29 138.95C514.05 139.4 513.49 139.55 513.07 140.02C509.53 143.94 507.33 150.28 514.02 152.19L512.21 156.19C511.38 162.95 511.39 170.17 510.47 176.89C509.82 181.67 508.11 184.35 504.83 187.75C502.91 189.74 499.91 191.07 499.41 193.83C496.83 193.13 492.85 195.39 490.58 196.75C489.12 197.63 487.56 198.47 487.23 200.31C486.63 200.19 486.14 200 485.5 200.03C483.86 200.11 478.82 203.49 479.4 205.72C479.03 205.53 478.57 204.48 478.45 204.11C478.11 203.03 478.45 200.91 476.56 201.94C475.22 205.16 472.71 208.16 471.24 211.22C470.04 213.7 469.51 215.94 471.97 217.88C472.65 218.42 473.48 218.6 473.99 219.24C470.34 220.02 468.74 224.49 467.63 227.62L466.14 234.65V230.19C466.14 229.34 464.91 225.23 464.52 224.24C463.49 221.63 461.23 218.06 458.02 218.43C458.2 216.61 459.22 215.34 459.38 213.44C459.63 210.49 458.65 207.93 458.28 205.06C462.12 200.34 465.4 196.43 464.79 189.9C464.49 186.73 462.13 184.27 460.67 181.58C458.93 178.35 456.65 172.73 456.38 169.11C455.91 162.85 459.5 155.18 461.26 149.23L461.88 154.15C462.8 160.89 466.99 167.18 473.76 169.04C477.3 170.01 482.87 170.5 486.35 169.31C490.13 168.02 495.23 162.28 490.38 159.18C487.11 157.09 484.11 158.71 482.3 161.75L480.46 165.72C480.34 158.03 489.68 148.36 497.09 154.37C499.15 156.04 499.76 158.14 499.93 160.72C500.86 174.79 488 178.73 476.27 177.34C472.11 176.85 467.91 175.65 465.04 172.48C465.01 175.78 468.15 178.25 469.68 180.95C471.77 184.63 471.91 189.25 471.52 193.43C471.3 195.76 469.99 197.95 470.17 200.33C471.77 198.94 474.5 193.49 474.5 191.54V187.34Z" fill="black"/>
<path d="M435.28 42.71C430.7 41.53 431.07 47.71 434.75 49.06C443.06 52.12 445.76 39.15 437.63 35.64C433.91 34.03 428.78 35.2 426.24 38.42C422.28 43.42 421.4 56.48 422.6 62.56C422.8 63.59 422.91 64.08 424.12 64.29C428.04 64.97 435.99 57.75 439.88 56.51C435.82 59.88 431.81 63.7 429.74 68.68C425.98 77.71 427.7 86.21 427.99 95.59C428.05 97.47 427.71 99.43 428.01 101.49C428.43 104.3 429.43 107.07 432.85 106.53C427.04 113.06 426.79 121.12 429.07 129.23L430.91 121.75C433.07 117.51 435.7 113.85 441.04 114.7C442.28 114.9 443.31 116.16 444.22 115.32C444.88 114.71 446.75 111.22 447.24 110.23C448.77 107.05 451.79 99.89 450.18 96.65C447.29 90.84 440.1 97.64 437.73 100.58C438.54 98.78 439.63 97.15 440.48 95.36C441.1 94.04 442.85 90.32 442.87 89.08C442.93 86.3 441.16 85.02 440.11 82.92C433.82 70.33 451.33 64.02 458.68 57.86C462.52 54.64 464.4 48.28 459.77 44.89C458.19 43.73 455.46 43.62 454.11 45.18C452.76 46.74 453.71 49 453.82 50.84C450.84 46.7 453.43 41.74 458.75 43.48C459.99 43.88 462.3 46.55 462.85 47.77C467.15 57.34 452.58 64.56 447.6 70.58C441.91 77.46 446.8 83.66 454.49 84.65C452.95 88.5 454.66 90.07 455.77 93.23C460.29 106.15 452.16 115.15 445.73 124.94C443.89 127.74 442.59 131.01 440.03 133.3L441.24 127.48C442.31 121.31 437.47 121.34 434.97 125.81C432.7 129.86 432.21 138.33 432.88 142.88C433.49 147.02 437.59 146.8 440.41 145.04C445.59 141.81 451.09 135.89 454.88 131.11C456.34 129.27 460.24 124.53 461.05 122.67C462.94 118.31 460.12 112.62 455.86 117.62C456.06 113.82 460.8 111.77 462.59 115.89C464.63 120.59 461.45 130.84 459.65 135.61C458.88 137.66 457.77 139.57 457.01 141.62C454.27 148.98 452.84 157.45 452.56 165.29C449.63 167.79 446.86 170.17 444.76 173.45C441.67 178.28 442.31 181.82 442.07 187.26C441.83 192.7 440.35 206.61 446.1 209.43C453.44 213.04 451.06 200.55 448.55 197.66C451.79 198.4 455.46 195.13 456.47 192.19C457.48 189.25 456.56 186.42 455.31 183.87C459.13 186.52 460.52 190.44 459.57 195.03C458.87 198.45 456.96 199.13 455.45 201.46C454.26 203.29 455.25 204.33 455.31 206.17C455.4 208.62 455.52 214.21 453.83 216.06C451.46 218.65 443.91 218.45 441.15 216.54C438.07 214.42 436.07 208.18 435.82 204.57C435.54 200.46 435.74 194.64 436.1 190.5C436.5 186.01 439.11 177.53 437.15 173.77C436.08 171.71 435.44 172.42 433.4 172.12C437.1 169.13 440.71 166.41 443.52 162.5C446.56 158.27 447.36 152.65 449.09 147.79C449.75 145.92 450.82 144.2 451.26 142.25C449.82 143.54 448.37 144.88 447.07 146.3C445.11 148.43 442.72 152.43 439.97 153.26C435.83 154.51 432.22 152.81 430.04 149.28C429.58 149.49 428.85 154.31 428.64 155.18C428.02 157.72 426.23 162.33 426.14 164.6C426.08 166.14 427.04 167.09 428.28 167.8C422.62 172.81 423.33 188.37 432.61 188.62C431.85 189.04 431.51 189.62 431.11 190.37C428.92 194.47 428.53 199.48 427.39 203.96C425.56 211.12 422.76 219.35 416.38 223.64L419.21 218.77C423.16 209.27 424.36 186.89 417.32 178.76C416.74 178.09 415.94 177.12 415.02 177.14C415.29 176.67 415.79 176.58 416.22 176.04C419.45 171.95 417.38 166.36 412.05 166.19C415.1 163.1 418.76 159.7 420.37 155.58C422.35 150.5 423.45 135.46 421.03 130.72C419.7 128.1 417.44 127.79 414.75 128.47C419.02 124.74 420.09 119.77 420.43 114.28C420.82 107.9 420.12 104.6 414.75 100.76C418.53 100.18 419.12 96.43 419.09 93.18C419.09 92.61 418.83 92.09 418.81 91.57C418.69 88.21 418.91 82.07 414.07 81.95C410.52 81.87 409.21 83.24 409.34 86.7C409.36 87.28 410.03 88.66 409.34 89C408.28 86.31 408.16 83.29 409.13 80.55C411.16 74.78 416.06 73.68 416.65 66.17C417.49 55.52 413.8 43.23 423.01 35.21C423.79 34.53 426.35 32.68 427.24 32.41C432.72 30.75 441.9 33.79 443.77 39.59C444.69 42.43 445.1 47.02 442.59 49.1C438.07 52.86 430.8 52.29 429.75 45.76C429.05 41.41 432.32 40.02 435.31 42.77L435.28 42.71Z" fill="black"/>
<path d="M415.53 203.43C414.96 199.44 408.75 192.25 404.59 191.93C399.83 191.57 397.32 194.42 395.77 198.55L394.98 203.29C393.48 199.56 392.44 196.03 391.73 192.07C390.82 187.02 390.34 184.67 387.82 180.03C384.24 173.45 378.64 169.91 371.1 172.8C370.24 173.13 369.59 173.77 368.74 173.95C369.84 171.68 371.8 169.84 374.05 168.71C375.95 167.76 380.23 167.06 381 165.11C383.41 158.98 378.12 155.12 372.53 154.89C372.39 154.26 372.61 154.46 372.88 154.28C375.85 152.38 378.23 152.51 376.78 147.8C376.57 147.1 375.5 145.6 375.5 145.29C375.5 144.84 376.97 142.9 377.21 142.14C377.93 139.82 377 129.23 376.54 126.41C376.08 123.59 375.4 122.74 373.33 120.97C374.26 120.53 375.04 119.56 375.2 118.52C375.52 116.44 375.37 108.77 374.74 106.85C374.41 105.85 373.59 105.11 372.8 104.48C374.39 102.96 374.63 101.04 375.14 99C376.08 95.29 378.08 86.89 377.93 83.38C377.71 78.14 375.72 70.19 368.86 73.79C368.68 73.85 368.67 73.57 368.73 73.39C370.52 67.81 375.54 60.88 378.16 55.23C384.06 42.48 387.14 28.11 392.76 15.21C394.11 12.11 395.85 8.92 398.22 6.47C394.27 15.09 392.8 24.31 393.9 33.77L401.74 26.2L398.18 31.96C396.18 36.77 394.68 39.66 398.23 44.18C399.12 45.31 400.37 46.02 401.45 46.93C399.39 53.15 407.02 53.32 409.45 57.04C412.65 61.93 405.41 68.41 410.41 72.3C409.95 72.89 409.15 72.61 408.51 72.83C403.66 74.53 403 82.72 404.11 86.97C405.62 92.77 411.11 97.26 410.64 103.35C410.35 107.09 407.47 115.57 408.92 118.66C410.37 121.75 413.52 120.44 414.6 117.57C415.56 115 415.39 113.26 414.2 110.82C417.82 114.74 417.01 122.98 410.27 122.18C406.61 121.74 405.84 116.07 406.12 113.15C406.43 109.93 408.31 107.82 406.31 104.52C404.2 101.05 399.21 99.83 396.08 102.71C397.08 100.24 399.25 98.07 402.03 97.98C399.44 93.84 395.82 90.64 396.38 85.3C396.6 83.2 398.15 79.82 397.99 77.97C397.83 76.12 395.62 74.37 395 72.7C401.71 74.38 404.34 63.32 402.35 58.73C400.36 54.14 393.35 54.96 391.63 52.42C390.76 51.13 390.77 49.47 389.46 52.44C387.93 55.9 388.15 59.38 390.4 62.43C390.08 62.71 388.85 60.81 387.01 62.43C384.67 64.49 383.03 70.86 382.81 73.91C382.38 79.84 382.85 86.56 383.63 92.44L385.26 89.61C386.91 87.27 389.86 86.66 391.74 89.06C389.68 88.82 388.51 88.62 387.14 90.41C385.34 92.76 384.69 98.34 384.98 101.22C385.27 104.1 386.96 107.22 388.49 109.6C387.93 109.89 387.33 109.54 386.71 109.98C384.91 111.27 385.03 119.04 385.31 121.15C385.93 125.72 389.44 130.43 392.54 133.66C391.53 133.82 390.68 133.12 389.67 133.01C386.23 132.65 385.63 134.39 385.78 137.44C386.28 147.28 387.08 156.93 389.37 166.56C390.33 170.59 393.22 181.94 395.29 184.98C397.36 188.02 399.9 185.88 402.64 186C405.22 186.12 407.5 187.55 409.85 188.4L401.46 179.08C400.88 178.81 400.15 178.87 399.56 179.06C398.71 179.33 398.8 179.96 398.23 180.29C397.16 177.49 396.1 174.1 397.37 171.19C397.75 170.31 398.86 169.44 398.73 168.6C398.57 167.54 396.69 165.14 395.79 164.49C395.27 164.11 394.44 164.18 394.18 163.54C396.19 162.91 397.61 161.2 399.23 160.07C402.07 158.08 407.41 155.54 409.61 153.41C411.37 151.71 412.12 148.27 409.85 146.66C406.46 144.25 400.01 146.09 396.07 145.69C403.02 139.87 397.21 131.06 395.18 124.28C394.18 120.94 394.71 117.4 389.58 118.66C390.32 117.37 391.98 116.82 393.38 117.15C394.03 117.3 394.36 117.82 394.98 117.85C394.95 114.03 395.24 107.39 400.05 106.56C401.95 106.23 402.95 106.66 403.7 108.46C403.81 108.72 404.23 109.73 403.64 109.74C403.21 107.18 399.92 107.37 398.49 109.06C396.15 111.85 396.05 116.66 396.33 120.14C396.64 123.92 398.5 129.28 403.1 126.03L404.44 121.63C404.55 124.95 405.26 131.96 408.31 133.86C408.58 134.03 408.99 134.06 409.31 134.07L409.13 134.61C406.39 134.84 406.26 139.32 407.84 140.81C409.19 142.08 414.01 141.1 415.78 142.61C417.98 144.49 417.18 150.58 416.28 153.07C414.35 158.4 407.78 160.13 404.02 164.07C402.01 166.17 402.35 166.44 403.88 168.78C401.48 170.55 400.94 172.29 402.82 174.75C406.1 179.04 409.77 179.65 413.23 182.73C418.76 187.64 418.65 197.64 417.22 204.3L415.53 208.42C415.37 206.86 415.75 204.93 415.53 203.42V203.43Z" fill="black"/>
<path d="M362.24 74.89C360.02 76.78 360.8 81.64 362.64 83.55C365 86 369.17 85.57 372.25 85.17C366.77 89.85 364.01 96.33 365.02 103.62C365.35 106.02 366.5 106.81 368.19 108.29C366.3 110 364.89 112.66 364.22 115.12C363.31 118.47 363.49 123.45 363.88 126.93C364.38 131.41 364.71 134.07 370.1 133.29C368.19 135.32 366.18 136.82 365.57 139.71C364.76 143.57 365.46 148.17 368.2 151.13C361.62 153.19 365.68 160.88 368.74 164.38C363.79 162.64 360.11 161.74 357.79 167.36C356.8 169.77 356.73 172.41 355.8 174.84C355.05 176.8 353.51 179.45 351.97 180.87C353.28 177.37 355.9 171.63 354.79 167.9C354.14 165.72 351.7 167.41 351.23 168.91L349.81 174.92C349.2 171.67 348.45 168.41 347.44 165.25C345.84 160.25 343.2 153.65 337.36 152.75C338.66 149.28 339.94 142.69 334.39 143.02C334.76 142.17 336.18 142.7 336.82 142.35C335.72 141.2 334.1 141.74 332.77 141.94C332.77 139.64 332.77 137.34 332.76 135.04C332.74 132.04 333.01 130 331.97 126.93C331.72 126.2 330.63 124.51 330.67 124.01C330.72 123.46 331.96 121.82 332.28 121.04C334.69 115.26 334.87 103.67 330.87 98.56C329.93 97.35 328.5 96.46 327.63 95.18C331.98 95.13 334.05 88.65 334.14 85.05C334.19 83.1 333.42 81.22 333.61 79.26C336.33 78.92 337.89 78.37 339.67 76.26C342.9 72.43 344.27 67.17 344.91 62.3C346.33 51.53 345.8 40.35 346.03 29.49C346.53 29.59 346.53 30.02 346.58 30.43C348.08 42.98 347.33 55.38 353.46 67.08C355.1 70.21 358.74 74.22 362.26 74.91L362.24 74.89ZM350.88 75.7C350.41 75.23 347.94 78.51 347.68 78.86C346.33 80.7 345.4 82.52 344.52 84.62C344.36 78.78 340.23 82.86 338.48 85.34C336.86 87.65 334.4 92.53 338.16 93.94C334.19 96.33 336.83 100.86 340.34 102.07C336.2 108.07 338.52 110.96 345.46 110.3C341.19 113.45 338.36 118.11 337.62 123.41C337.13 126.92 337.6 135.57 338.56 138.96C339.05 140.71 341 143.09 342.92 143.28C344.57 143.44 350.81 140.31 351.15 140.58C347.62 145.38 344.14 156.01 351.06 159.45C355.84 161.82 358.63 155.86 359.23 152.03C360.13 146.29 360.15 130.2 357.42 125.25C357.19 124.83 356.65 124.42 356.56 124.22C356.12 123.18 358.39 124.44 358.45 124.36C358.39 122.2 356.4 119.78 354.19 119.56C353.68 119.51 353.14 119.95 352.77 119.63C356.35 115.89 358.69 112.07 359.46 106.85C360.07 102.66 359.56 95.8 353.59 98.41C355.08 95.09 357.32 90.05 357.12 86.37C356.83 80.91 349.65 83.59 347.37 86.24C347.74 82.53 348.64 78.74 350.88 75.7Z" fill="black"/>
</svg>
