<svg width="272" height="320" viewBox="0 0 272 320" fill="white" xmlns="http://www.w3.org/2000/svg" preserveAspectRatio="none">
<path d="M135.686 320C107.769 319.9 83.6536 313.446 63.3409 300.638C43.0282 287.83 27.3685 269.368 16.3616 245.253C5.3547 221.138 -0.0987102 192.22 0.00135219 158.499C0.101415 124.678 5.60485 95.96 16.5117 72.3452C27.5185 48.7305 43.1283 30.7692 63.3409 18.4615C83.6536 6.15385 107.769 0 135.686 0C163.604 0 187.719 6.20388 208.031 18.6116C228.344 30.9193 244.004 48.8805 255.011 72.4953C266.018 96.1101 271.471 124.778 271.371 158.499C271.371 192.42 265.868 221.438 254.861 245.553C243.854 269.669 228.194 288.13 207.881 300.938C187.669 313.646 163.604 320 135.686 320ZM135.686 252.158C150.095 252.158 161.903 244.653 171.108 229.644C180.414 214.534 185.017 190.819 184.917 158.499C184.917 137.386 182.816 120.125 178.613 106.717C174.41 93.3083 168.607 83.4021 161.202 76.9981C153.797 70.4941 145.292 67.242 135.686 67.242C121.277 67.242 109.52 74.5466 100.414 89.1557C91.3084 103.765 86.6555 126.879 86.4554 158.499C86.3553 180.013 88.4066 197.724 92.6092 211.632C96.8119 225.441 102.615 235.647 110.02 242.251C117.525 248.856 126.08 252.158 135.686 252.158Z"/>
</svg>
